<svg xmlns="http://www.w3.org/2000/svg" xmlns:xlink="http://www.w3.org/1999/xlink" width="371.875" height="200" class="icon" p-id="4247" t="1723894745911" version="1.1" viewBox="0 0 1904 1024"><path fill="#1299F3" d="M883.291704 128.859373c-39.343264 33.333236 233.559589-36.367082 206.362867 98.329327-26.367111 129.577376-287.307573-27.200442-573.246102-13.988055-126.487728 5.766352-242.372807 42.081351-316.2342 132.374988 77.194716-87.912691 230.226265-66.964091 190.289626-6.428553C297.432171 480.093471 122.553587 378.609391 0 654.609333c14.694898-31.724238 54.34322-94.93648 225.644805-121.1213 125.886911-19.226135 334.448433-1.249996 401.111186 102.912647 73.3294 114.583-298.319445 101.603127-92.615058 124.813625 285.164722 32.196707 499.916702 262.662927 778.771918 262.785695 361.113162 0 589.019865-184.456309 591.817476-487.77388 4.999985-549.438507-722.282127-660.154331-1021.3884-407.420691z m537.117114 599.496025c-94.817433-2.61904-190.763954-40.652784-266.952349-77.793673-187.668725-91.66268-264.928545-123.267871-264.928545-127.603796 0-5.297604 112.672664 38.390885 302.605147-62.617005 109.756005-58.331304 113.625042-109.279816 229.335271-119.458358 137.315449-12.090739 235.04768 89.6984 235.04768 196.656794 0 107.077442-96.960284 194.692514-235.166728 190.763955z" p-id="4248"/></svg>