<svg width="56px" height="58px" viewBox="0 0 56 58" shapeRendering="crispEdges" xmlns="http://www.w3.org/2000/svg">
	<g id="water">
		<path d="M0 38V36H19V38H52V47H51V48H50V49H47V51H46V52H45V53H44V54H38V56H37V57H36V58H20V57H19V56H18V54H11V53H10V52H9V51H8V49H6V48H5V47H4V40H2V39H1V38H0Z" fill="#012647"/>
		<path d="M9 4H46V45H9V4Z" fill="#278EED"/><path d="M5 35H9V36H5V35Z" fill="#278EED"/>
		<path d="M10 8H37V36H10V8Z" fill="#3DA2FF"/><path d="M37 18H42V32H37V18Z" fill="#3DA2FF"/><path d="M28 36H33V41H28V36Z" fill="#3DA2FF"/>
		<path d="M33 36H37V41H33V36Z" fill="#2E95F4"/><path d="M37 32H42V36H37V32Z" fill="#2E95F4"/>
		<path d="M18 8H28V22H18V8Z" fill="#57AAFF"/><path d="M18 22H23V27H18V22Z" fill="#57AAFF"/>
		<path d="M33 8H37V18H33V8Z" fill="#4BA8FF"/><path d="M33 22H37V32H33V22Z" fill="#4BA8FF"/><path d="M28 27H33V36H28V27Z" fill="#4BA8FF"/><path d="M19 32H28V38H19V32Z" fill="#4BA8FF"/>
		<path d="M9 41H14V45H9V41Z" fill="#0D74D3"/><path d="M19 48H23V50H19V48Z" fill="#0D74D3"/><path d="M46 32H48V36H46V32Z" fill="#0D74D3"/><path d="M46 18H49V27H46V18Z" fill="#0D74D3"/><path d="M42 36H46V45H42V36Z" fill="#0D74D3"/><path d="M37 41H42V45H37V41Z" fill="#0D74D3"/>
		<path d="M9 45H19V50H9V45Z" fill="#014E96"/><path d="M19 50H37V55H19V50Z" fill="#014E96"/><path d="M37 45H46V50H37V45Z" fill="#014E96"/><path d="M46 36H51V45H46V36Z" fill="#014E96"/>
		<path d="M19 0H37V4H19V0Z" fill="#0157A9"/><path d="M0 18H5V36H0V18Z" fill="#0157A9"/><path d="M5 36H9V45H5V36Z" fill="#0157A9"/>
		<path d="M42 18H46V22H42V18Z" fill="#3198F7"/><path d="M51 38V36H56V38H55V39H54V40H52V38H51Z" fill="#132E2F"/>
	</g>
	<g id="land">
		<path d="M19 38H28V41H19V38Z" fill="#6EC310"/><path d="M23 14H24V16H23V14Z" fill="#6EC310"/><path d="M24 8H27V10H24V8Z" fill="#6EC310"/><path d="M24 18V16H25V17H26V18H24Z" fill="#6EC310"/><path d="M14 13V8H22V10H21V11H22V13H14Z" fill="#6EC310"/><path d="M14 22V13H9V22H5V35H9V36H14V34H12V33H10V30H11V29H14V30H15V31H16V27H18V22H14Z" fill="#6EC310"/>
		<path d="M19 45V41H34V45H19Z" fill="#57B10F"/><path d="M5 22V18H9V22H5Z" fill="#57B10F"/><path d="M9 13V8H14V13H9Z" fill="#57B10F"/><path d="M19 8V4H28V6H27V8H24V7H22V8H19Z" fill="#57B10F"/>
		<path d="M9 37V36H14V37H16V39H17V40H19V41H16V40H15V39H12V37H9Z" fill="#58AE01"/>
		<path d="M39 11V8H46V17H45V13H42V11H39Z" fill="#448001"/><path d="M49 18H51V36H48V32H46V27H49V18Z" fill="#448001"/><path d="M37 50V45H19V48H23V50H37Z" fill="#448001"/>
		<path d="M9 8V4H19V8H9V18H5V8H9Z" fill="#2A5401"/><path d="M37 8V4H46V8H51V18H56V36H51V18H46V8H37Z" fill="#2A5401"/><path d="M26 51V50H34V51H33V54H32V55H29V53H27V51H26Z" fill="#2A5401"/><path d="M51 38V36H49V37H50V38H51Z" fill="#2A5401"/>
	</g>
	<g id="sun">
		<path d="M14 22V13H23V22H14Z" fill="#ffffff"/>
	</g>
</svg>
