<svg xmlns="http://www.w3.org/2000/svg" xmlns:xlink="http://www.w3.org/1999/xlink" width="269.336" height="200" class="icon" p-id="1454" t="1723637218010" version="1.1" viewBox="0 0 1379 1024"><path fill="#2980FF" d="M987.909224 900.576653c10.971429-8.986122 21.545796-18.348408 31.681307-28.212245 96.193306-93.748245 149.169633-222.187102 149.169632-361.680979 0-14.524082-0.543347-28.88098-1.609143-43.070694a243.168653 243.168653 0 0 1 91.324082 189.962449c0 143.318204-103.006041 234.809469-270.607673 242.980571l0.041795 0.020898z m-532.500897 0.647837c-110.592 0-199.68-26.791184-257.609143-77.406041-50.823837-44.408163-77.656816-107.52-77.656817-182.522776 0-79.307755 28.065959-148.145633 79.119674-193.870367a211.800816 211.800816 0 0 1 142.774857-54.104816c8.463673 0 16.990041 0.459755 25.558204 1.421061 63.38351 7.000816 112.64 37.114776 135.188898 82.546939 16.509388 33.353143 15.610776 69.820082-2.507755 99.996734-14.085224 23.44751-33.248653 37.908898-56.967837 42.987103-27.397224 5.851429-60.666776-1.191184-84.78302-18.014041l-60.144327 104.155428c50.364082 31.764898 113.099755 43.509551 170.067592 31.305143 56.717061-12.099918 103.340408-46.205388 134.791837-98.617469 39.079184-64.992653 41.712327-145.387102 7.188898-215.123592-36.884898-74.396735-108.105143-125.680327-198.133551-143.777959a257.609143 257.609143 0 0 1 61.565387-84.365061c53.707755-48.817633 129.107592-75.692408 212.365062-75.692409 99.22351 0 190.840163 39.998694 257.94351 112.681796 67.37502 72.933878 104.489796 171.593143 104.489796 277.859266 0 106.788571-40.124082 204.716408-112.911674 275.602285-77.176163 75.190857-183.484082 114.938776-307.388081 114.938776h-172.95151z m677.302857-587.734204C1061.219265 127.749224 890.420245 0 686.226286 0c-113.204245 0-217.338776 37.971592-293.198368 106.976653a381.471347 381.471347 0 0 0-107.770775 170.819918A329.310041 329.310041 0 0 0 119.118367 357.982041C42.360163 426.736327 0 527.36 0 641.295673 0 751.992163 41.085388 846.367347 118.742204 914.285714c80.164571 70.029061 196.545306 107.081143 336.666123 107.081143h507.611428c248.602122 0 415.618612-146.181224 415.618612-363.791673 0-159.346939-103.026939-295.01649-245.885387-344.084898h-0.041796z" p-id="1455"/></svg>